# xmcd
#
# Track frame offsets: 
#        150
#        23387
#        44655
#        69292
#        92836
#        118392
#        141191
#        181743
#        215147
#        235423
#        262963
#        298817
#
# Disc length: 4419 seconds
#
# Revision: 1
# Processed by: cddbd v1.5.2PL0 Copyright (c) Steve Scherf et al.
# Submitted via: ExactAudioCopy v0.99pb4
#
DISCID=b511410c
DTITLE=Bruce Springsteen - Bologna, 6-4-05(StevieRay version-Disc 2)
DYEAR=2005
DGENRE=Rock and Roll
TTITLE0=Real World
TTITLE1=My Hometown
TTITLE2=The Rising
TTITLE3=Further On (Up The Road)
TTITLE4=Jesus Was An Only Son
TTITLE5=Leah
TTITLE6=The Hitter
TTITLE7=Matamoros Banks
TTITLE8=Ramrod
TTITLE9=Land Of Hope And Dreams
TTITLE10=The Promised Land
TTITLE11=Dream Baby Dream
EXTD=
EXTT0=
EXTT1=
EXTT2=
EXTT3=
EXTT4=
EXTT5=
EXTT6=
EXTT7=
EXTT8=
EXTT9=
EXTT10=
EXTT11=
PLAYORDER=
